<svg width="19" height="20" viewBox="0 0 19 20" fill="none" xmlns="http://www.w3.org/2000/svg">
<path d="M15.8198 2H14.0074V1C14.0074 0.734784 13.9119 0.48043 13.742 0.292893C13.5721 0.105357 13.3416 0 13.1012 0C12.8609 0 12.6304 0.105357 12.4605 0.292893C12.2905 0.48043 12.1951 0.734784 12.1951 1V2H6.75804V1C6.75804 0.734784 6.66256 0.48043 6.49262 0.292893C6.32268 0.105357 6.09219 0 5.85186 0C5.61153 0 5.38104 0.105357 5.2111 0.292893C5.04116 0.48043 4.94569 0.734784 4.94569 1V2H3.13334C2.41235 2 1.72088 2.31607 1.21106 2.87868C0.70124 3.44129 0.414825 4.20435 0.414825 5V17C0.414825 17.7956 0.70124 18.5587 1.21106 19.1213C1.72088 19.6839 2.41235 20 3.13334 20H15.8198C16.5408 20 17.2322 19.6839 17.742 19.1213C18.2519 18.5587 18.5383 17.7956 18.5383 17V5C18.5383 4.20435 18.2519 3.44129 17.742 2.87868C17.2322 2.31607 16.5408 2 15.8198 2ZM16.7259 17C16.7259 17.2652 16.6305 17.5196 16.4605 17.7071C16.2906 17.8946 16.0601 18 15.8198 18H3.13334C2.89301 18 2.66252 17.8946 2.49258 17.7071C2.32264 17.5196 2.22717 17.2652 2.22717 17V10H16.7259V17ZM16.7259 8H2.22717V5C2.22717 4.73478 2.32264 4.48043 2.49258 4.29289C2.66252 4.10536 2.89301 4 3.13334 4H4.94569V5C4.94569 5.26522 5.04116 5.51957 5.2111 5.70711C5.38104 5.89464 5.61153 6 5.85186 6C6.09219 6 6.32268 5.89464 6.49262 5.70711C6.66256 5.51957 6.75804 5.26522 6.75804 5V4H12.1951V5C12.1951 5.26522 12.2905 5.51957 12.4605 5.70711C12.6304 5.89464 12.8609 6 13.1012 6C13.3416 6 13.5721 5.89464 13.742 5.70711C13.9119 5.51957 14.0074 5.26522 14.0074 5V4H15.8198C16.0601 4 16.2906 4.10536 16.4605 4.29289C16.6305 4.48043 16.7259 4.73478 16.7259 5V8Z" fill="#00A4AA"/>
</svg>
