<svg width="19" height="17" viewBox="0 0 19 17" fill="none" xmlns="http://www.w3.org/2000/svg">
<path fill-rule="evenodd" clip-rule="evenodd" d="M3.39528 0.51709H2.03717V7.36438H3.39528V0.51709ZM11.6798 7.36438H7.33381L6.79056 6.61118V5.24172L7.33381 4.62546H11.6798L12.223 5.31019V6.67965L11.6798 7.36438ZM4.88921 11.4728H0.543245L0 10.788V9.41857L0.543245 8.73384H4.88921L5.43245 9.41857V10.788L4.88921 11.4728ZM10.1858 0.51709H8.82773V3.25601H10.1858V0.51709ZM8.82773 8.73384H10.1858V16.9506H8.82773V8.73384ZM3.39528 12.8422H2.03717V16.9506H3.39528V12.8422ZM14.1244 12.8422H18.4568L19 12.1575V10.8565L18.4568 10.1718H14.1244L13.5811 10.8565V12.1575L14.1244 12.8422ZM16.9764 0.51709H15.6183V8.73384H16.9764V0.51709ZM15.6183 14.2117H16.9764V16.9506H15.6183V14.2117Z" fill="#F6FAFE"/>
</svg>
